# Aspose.3D Wavefront OBJ Exporter
# Copyright 2004-2024 Aspose Pty Ltd.
# File created: 04/19/2024 23:01:11

mtllib material.lib
g Cube

#
# object Cube
#

v -317.99075 5.7779584 317.99075
v -317.99075 -5.7779107 317.99075
v -317.99075 5.777855 -317.99075
v -317.99075 -5.778014 -317.99075
v 317.99075 5.778014 317.99075
v 317.99075 -5.777855 317.99075
v 317.99075 5.7779107 -317.99075
v 317.99075 -5.7779584 -317.99075
v -208.96587 5.7778645 -317.99075
v 208.96587 5.777901 -317.99075
v 208.96587 -5.777968 -317.99075
v -208.96587 -5.7780046 -317.99075
v 208.96587 5.7780046 317.99075
v -208.96587 5.777968 317.99075
v -208.96587 -5.777901 317.99075
v 208.96587 -5.7778645 317.99075
v -208.96587 -5.517378 -317.99075
v 208.96587 -5.5173416 -317.99075
v 208.96587 -17.07321 -317.99075
v -208.96587 -17.073246 -317.99075
v 208.96587 -5.5172377 317.99075
v -208.96587 -5.5172744 317.99075
v -208.96587 -17.073143 317.99075
v 208.96587 -17.073107 317.99075
# 24 vertices

vn 1 8.742278E-08 1.9852335E-23
vn 1 8.742278E-08 1.9852335E-23
vn 1 8.742278E-08 1.9852335E-23
vn 1 8.742278E-08 1.9852335E-23
vn -8.742278E-08 1 -1.6292068E-07
vn -8.742278E-08 1 -1.6292068E-07
vn -8.742278E-08 1 -1.6292068E-07
vn -8.742278E-08 1 -1.6292068E-07
vn -1 -8.742278E-08 -1.9852335E-23
vn -1 -8.742278E-08 -1.9852335E-23
vn -1 -8.742278E-08 -1.9852335E-23
vn -1 -8.742278E-08 -1.9852335E-23
vn 8.742278E-08 -1 1.6292068E-07
vn 8.742278E-08 -1 1.6292068E-07
vn 8.742278E-08 -1 1.6292068E-07
vn 8.742278E-08 -1 1.6292068E-07
vn 1.424298E-14 -1.6292068E-07 -1
vn 1.424298E-14 -1.6292068E-07 -1
vn 1.424298E-14 -1.6292068E-07 -1
vn 1.424298E-14 -1.6292068E-07 -1
vn -8.742278E-08 1 -1.6292068E-07
vn -8.742278E-08 1 -1.6292068E-07
vn -8.742278E-08 1 -1.6292068E-07
vn -8.742278E-08 1 -1.6292068E-07
vn -1.424298E-14 1.6292068E-07 1
vn -1.424298E-14 1.6292068E-07 1
vn -1.424298E-14 1.6292068E-07 1
vn -1.424298E-14 1.6292068E-07 1
vn 1.424298E-14 -1.6292068E-07 -1
vn 1.424298E-14 -1.6292068E-07 -1
vn 1.424298E-14 -1.6292068E-07 -1
vn 1.424298E-14 -1.6292068E-07 -1
vn 8.742278E-08 -1 1.6292068E-07
vn 8.742278E-08 -1 1.6292068E-07
vn 8.742278E-08 -1 1.6292068E-07
vn 8.742278E-08 -1 1.6292068E-07
vn -1 -8.742278E-08 -1.9852335E-23
vn -1 -8.742278E-08 -1.9852335E-23
vn -1 -8.742278E-08 -1.9852335E-23
vn -1 -8.742278E-08 -1.9852335E-23
vn -8.742278E-08 1 -1.6292068E-07
vn -8.742278E-08 1 -1.6292068E-07
vn -8.742278E-08 1 -1.6292068E-07
vn -8.742278E-08 1 -1.6292068E-07
vn -8.742278E-08 1 -1.6292068E-07
vn -8.742278E-08 1 -1.6292068E-07
vn -8.742278E-08 1 -1.6292068E-07
vn -8.742278E-08 1 -1.6292068E-07
vn -8.742278E-08 1 -1.6292068E-07
vn -8.742278E-08 1 -1.6292068E-07
vn -8.742278E-08 1 -1.6292068E-07
vn -8.742278E-08 1 -1.6292068E-07
vn -1.424298E-14 1.6292068E-07 1
vn -1.424298E-14 1.6292068E-07 1
vn -1.424298E-14 1.6292068E-07 1
vn -1.424298E-14 1.6292068E-07 1
vn -8.742278E-08 0.99999994 -1.6292067E-07
vn -8.742278E-08 0.99999994 -1.6292067E-07
vn -8.742278E-08 0.99999994 -1.6292067E-07
vn -8.742278E-08 0.99999994 -1.6292067E-07
vn 8.742278E-08 -0.99999994 1.6292067E-07
vn 8.742278E-08 -0.99999994 1.6292067E-07
vn 8.742278E-08 -0.99999994 1.6292067E-07
vn 8.742278E-08 -0.99999994 1.6292067E-07
vn 1.424298E-14 -1.6292068E-07 -1
vn 1.424298E-14 -1.6292068E-07 -1
vn 1.424298E-14 -1.6292068E-07 -1
vn 1.424298E-14 -1.6292068E-07 -1
vn -1.424298E-14 1.6292068E-07 1
vn -1.424298E-14 1.6292068E-07 1
vn -1.424298E-14 1.6292068E-07 1
vn -1.424298E-14 1.6292068E-07 1
vn 1 8.742278E-08 1.9852335E-23
vn 1 8.742278E-08 1.9852335E-23
vn 1 8.742278E-08 1.9852335E-23
vn 1 8.742278E-08 1.9852335E-23
vn -0.99999994 -8.742278E-08 -1.323489E-23
vn -0.99999994 -8.742278E-08 -1.323489E-23
vn -0.99999994 -8.742278E-08 -1.323489E-23
vn -0.99999994 -8.742278E-08 -1.323489E-23
vn 0.99999994 8.742278E-08 1.323489E-23
vn 0.99999994 8.742278E-08 1.323489E-23
vn 0.99999994 8.742278E-08 1.323489E-23
vn 0.99999994 8.742278E-08 1.323489E-23
vn -8.742278E-08 1 -1.6292068E-07
vn -8.742278E-08 1 -1.6292068E-07
vn -8.742278E-08 1 -1.6292068E-07
vn -8.742278E-08 1 -1.6292068E-07
# 88 vertex normals

vt -0.0033820271 0.7838781 0
vt 0.625 0.45714307 0
vt 0.375 0.79285693 0
vt 0.9934397 0.8768827 0
vt 0.91928923 0.122613 0
vt 0.17230242 0.603733 0
vt 0.99967897 0.23105851 0
vt 0.21811606 0.6152977 0
vt 0.49264628 0.90088844 0
vt 0.625 0.95714307 0
vt 0.37438297 0.9041934 0
vt 0.91928935 0.09613702 0
vt 0.05469361 0.8711633 0
vt 0.625 0.5 0
vt 0.625 0.79285693 0
vt 0.6499673 0.09378959 0
vt -0.0083862245 0.9995164 0
vt 0.15250431 0.6152977 0
vt 0.17230242 0.76801914 0
vt 0.625 0.29285693 0
vt 0.875 0.5 0
vt 0.34303308 0.8775983 0
vt 0.83214307 0.5 0
vt 0.9910921 0.90020955 0
vt 0.375 0.79285693 0
vt 0.3455651 0.9009002 0
vt 0.49145627 0.8776706 0
vt 0.15250431 0.7795838 0
vt 0.375 0.95714307 0
vt 0.625 0.45714307 0
vt 0.6597006 0.091021836 0
vt 0.375 0.29285693 0
vt 0.66785693 0.75 0
vt 0.4985342 0.90271425 0
vt 0.375 0.45714307 0
vt 0.50927085 0.13132828 0
vt 0.66785693 0.5 0
vt 0.3747614 1.001954 0
vt 0.35352388 0.9027502 0
vt -0.0022848397 0.90753573 0
vt 0.625 0.95714307 0
vt 0.83214307 0.75 0
vt 0.3750666 0.90505177 0
vt 0.21811606 0.7795838 0
vt 0.6591532 0.13141164 0
vt 0.08052409 0.09613702 0
vt 0.08052415 0.122613 0
vt 0.490114 0.87758654 0
vt 0.054693714 0.90227413 0
vt -0.00891909 0.9093115 0
vt 0.625 0.29285693 0
vt 0.95683885 0.8711633 0
vt 0.83214307 0.5 0
vt -0.0019064099 1.0052963 0
vt 0.49982277 0.09168394 0
vt 0.04200235 0.11923678 0
vt 0.95683885 0.9022742 0
vt 0.375 0.95714307 0
vt 0.34644616 0.8777065 0
vt 0.375 0.29285693 0
vt 0.66785693 0.75 0
vt 0.0065612793 0.90018404 0
vt 0.375 0.45714307 0
vt 0.66785693 0.5 0
vt 0.9579977 0.09665887 0
vt 0.875 0.75 0
vt 0.625 0.79285693 0
vt 0.120808154 0.76801914 0
vt 0.6458956 0.12873222 0
vt 0.625 0.75 0
vt 1.0022541 0.78061926 0
vt -0.0059571266 0.23431739 0
vt 0.83214307 0.75 0
vt 0.04330737 0.09643115 0
vt 0.4957511 0.12662657 0
vt 0.008907735 0.87685716 0
vt 0.95669264 0.1194645 0
vt 0.120808154 0.603733 0
vt 0.508268 0.09093848 0
vt 0.37559944 0.99525684 0
# 80 texture coords

usemtl Material.001
s 1
f 1/56/1 2/74/2 4/65/3 3/77/4
f 8/14/5 11/37/6 16/61/7 6/70/8
f 7/62/9 8/76/10 6/4/11 5/24/12
f 3/17/13 9/50/14 14/43/15 1/80/16
f 5/26/17 6/22/18 16/48/19 13/9/20
f 12/53/21 4/21/22 2/66/23 15/42/24
f 10/36/25 11/79/26 8/31/27 7/45/28
f 14/39/29 15/59/30 2/27/31 1/34/32
f 10/54/33 7/40/34 5/11/35 13/38/36
f 14/13/37 9/52/38 17/57/39 22/49/40
f 13/3/41 16/67/42 24/15/43 21/25/44
f 9/60/45 12/51/46 20/20/47 17/32/48
f 15/41/49 14/58/50 22/29/51 23/10/52
f 3/75/53 4/55/54 12/16/55 9/69/56
f 20/23/57 23/73/58 24/33/59 19/64/60
f 18/72/61 21/7/62 22/71/63 17/1/64
f 23/19/65 22/68/66 21/78/67 24/6/68
f 19/44/69 18/28/70 17/18/71 20/8/72
f 10/46/73 13/12/74 21/5/75 18/47/76
f 16/61/77 11/37/78 19/64/79 24/33/80
f 12/53/81 15/42/82 23/73/83 20/23/84
f 11/30/85 10/63/86 18/35/87 19/2/88
#22 polygons

